<svg data-v-0dd9719b="" version="1.0" xmlns="http://www.w3.org/2000/svg" xmlns:xlink="http://www.w3.org/1999/xlink" width="100%" height="100%" viewBox="0 0 340.000000 250.000000" preserveAspectRatio="xMidYMid meet" color-interpolation-filters="sRGB" style="margin: auto;"> <rect data-v-0dd9719b="" x="0" y="0" width="100%" height="100%" fill="#ffffff" fill-opacity="1" class="background"></rect> <rect data-v-0dd9719b="" x="0" y="0" width="100%" height="100%" fill="url(#watermark)" fill-opacity="1" class="watermarklayer"></rect> <g data-v-0dd9719b="" fill="#333333" class="iconlinesvg-g iconlinesvg" transform="translate(83.23000359535217,97.18999862670898)"><g class="tp-name"><g transform="translate(0, 0)"><g data-gra="path-name" fill="#333333" transform="scale(1)"><path d="M25.95-19.98L25.95-19.98Q26.55-18.84 27.11-17.61Q27.66-16.38 28.17-15.09L28.17-15.09Q28.68-16.41 29.25-17.65Q29.82-18.90 30.42-20.07L30.42-20.07L41.64-42.15Q41.94-42.72 42.25-43.03Q42.57-43.35 42.96-43.50Q43.35-43.65 43.84-43.68Q44.34-43.71 45-43.71L45-43.71L52.74-43.71L52.74 0L43.80 0L43.80-25.14Q43.80-26.97 43.98-29.10L43.98-29.10L32.40-6.63Q31.86-5.58 30.95-5.04Q30.03-4.50 28.86-4.50L28.86-4.50L27.48-4.50Q26.31-4.50 25.39-5.04Q24.48-5.58 23.94-6.63L23.94-6.63L12.30-29.13Q12.42-28.08 12.48-27.04Q12.54-26.01 12.54-25.14L12.54-25.14L12.54 0L3.60 0L3.60-43.71L11.34-43.71Q12-43.71 12.49-43.68Q12.99-43.65 13.38-43.50Q13.77-43.35 14.08-43.03Q14.40-42.72 14.70-42.15L14.70-42.15L25.95-19.98Z" transform="translate(-3.5999999999999996, 44.91)"></path></g></g><g transform="translate(53, 0)"><g data-gra="path-name" fill="#333333" transform="scale(1)"><path d="M21.06 0L3.60 0L3.60-43.71L19.68-43.71Q24.21-43.71 27.39-42.87Q30.57-42.03 32.58-40.50Q34.59-38.97 35.50-36.78Q36.42-34.59 36.42-31.89L36.42-31.89Q36.42-30.42 36-29.05Q35.58-27.69 34.68-26.49Q33.78-25.29 32.37-24.31Q30.96-23.34 28.98-22.62L28.98-22.62Q33.30-21.57 35.37-19.21Q37.44-16.86 37.44-13.17L37.44-13.17Q37.44-10.38 36.36-7.98Q35.28-5.58 33.20-3.79Q31.11-2.01 28.05-1.00Q24.99 0 21.06 0L21.06 0ZM20.82-18.54L13.74-18.54L13.74-7.65L20.88-7.65Q22.89-7.65 24.16-8.16Q25.44-8.67 26.16-9.48Q26.88-10.29 27.15-11.31Q27.42-12.33 27.42-13.38L27.42-13.38Q27.42-14.58 27.11-15.54Q26.79-16.50 26.02-17.16Q25.26-17.82 24-18.18Q22.74-18.54 20.82-18.54L20.82-18.54ZM13.74-36.12L13.74-25.32L19.02-25.32Q20.70-25.32 22.05-25.56Q23.40-25.80 24.34-26.40Q25.29-27 25.79-28.05Q26.28-29.10 26.28-30.69L26.28-30.69Q26.28-32.25 25.89-33.28Q25.50-34.32 24.69-34.95Q23.88-35.58 22.63-35.85Q21.39-36.12 19.68-36.12L19.68-36.12L13.74-36.12Z" transform="translate(-3.5999999999999996, 44.91)"></path></g></g><g transform="translate(90, 0)"><g data-gra="path-name" fill="#333333" transform="scale(1)"><path d="M3.90-44.91L13.20-44.91L13.20 0L3.90 0L3.90-44.91Z" transform="translate(-3.9, 44.91)"></path></g></g><g transform="translate(103, 8.568378840324943)"><g><g class="imagesvg"><g><rect fill="#333333" fill-opacity="0" stroke-width="2" x="0" y="0" width="36.617189899284824" height="38.48324231935011" class="image-rect"></rect> <svg x="0" y="0" width="36.617189899284824" height="38.48324231935011" filtersec="colorsb1725567956" class="image-svg-svg primary" style="overflow: visible;"><svg xmlns="http://www.w3.org/2000/svg" viewBox="0.000019073486328125 0 195.5634002685547 205.52999877929688"><g><g><path d="M156.44 38.73a70 70 0 0 0-12.63-4.14A28.64 28.64 0 0 1 133.72 45a26.71 26.71 0 0 1 4.82 1.87c1.39.72 2.73 1.43 4 2.11 9.82 5.19 19 8 23.12 6.73a20 20 0 0 0 4.52-2s-1.9 5.74-4.62 8.24c-1.23 1.13-15 16.46-42.32 7.68a51.43 51.43 0 0 1-9.57-4.47 16.06 16.06 0 0 1-.14 3.05C111.85 80.63 95.83 95 95.15 95.62l-2.52 2.24-1.5-3c-.36-.72-8.15-16.59-6.58-27.7q-3.25 1.75-7.05 3.53a34 34 0 0 1-14.56 3.45c-18.06 0-29.12-15.85-29.47-16.38-2.86-4.24-2.45-6-2.45-6a40.74 40.74 0 0 0 5.1 2.48c6.65 2.62 12.79.57 23-6 1.22-.78 2.49-1.58 3.81-2.4a24.82 24.82 0 0 1 6.43-2.73 27.8 27.8 0 0 1-8.53-9.73 61.05 61.05 0 0 0-21.73 5.34C10 51.2-2.43 79.09.39 112.78c4.13 49.29 34.61 92.75 97.39 92.75s93.26-43.46 97.39-92.75c2.83-33.69-9.56-61.58-38.73-74.05zM166.95 149c-1.45 3.58-4.94 5.68-7.78 4.7s-4-4.68-2.53-8.26 4.94-5.68 7.78-4.7 3.98 4.68 2.53 8.26zm13.43-38c-1.5 12.18-8.55 23-13.18 22.59s-.67-8.39-.77-20.83-3.67-22.09 1.19-26.16c9.38-7.88 14.72 8.47 12.75 24.4z" fill="#ff6347"></path><path d="M124.68 64.8a36.25 36.25 0 0 0 34.52-4.1c-6.19-.34-12.13-3.47-19-7.12-1.28-.68-2.6-1.37-4-2.08a52 52 0 0 0-11.11-3.63c-2.86-.54-9.28-1-9.28-1a49.41 49.41 0 0 1 9.28-3.61c13.26-3.63 17-15.36 18.05-22.27-3.28 1.67-8.49 3.39-16.78 4.65a32.71 32.71 0 0 0-17.43 8.22A22.78 22.78 0 0 0 105 40s.29-10.95 1.29-15.19C108 17.5 114 5.83 117.65.89L107.51 0c-9 11.31-10.38 21.79-10.6 32.2a73.71 73.71 0 0 0 .43 7.51s-2.57-3.1-3.56-4.24-6.07-6.81-12.92-8.67c-9.11-2.46-15.16-4-19-6.8a37.8 37.8 0 0 0 1.34 5.76c2.59 8.11 7.73 13.69 14.69 15.91s9.59 3.89 9.59 3.89a75.7 75.7 0 0 0-9.5.27 39.22 39.22 0 0 0-12.29 4.39c-1.3.81-2.55 1.6-3.76 2.37-6.81 4.33-12.63 8-18.79 8.21 6.23 5.58 17.54 12.1 32.17 5.2 4.89-2.3 10.87-5.63 12.52-6.61l5.31-3.17s-1.31 3-1.92 4.67a45.54 45.54 0 0 0-1.45 5.63c-1 6.45 1.9 16.59 4.51 22.78 4.41-4.41 12.45-12.75 14-21.17a17.37 17.37 0 0 0-.54-7.51c-.7-1.93-1.14-3.62-1.14-3.62s2.54 1 5.36 2.36 6.9 3.17 12.72 5.44z" fill="#008000"></path></g></g></svg></svg> <!----></g></g></g></g><g transform="translate(143, 0)"><g data-gra="path-name" fill="#333333" transform="scale(1)"><path d="M14.58-31.65L14.58-31.65Q16.56-31.65 18.31-31.26Q20.07-30.87 21.57-30.15L21.57-30.15L30.96-30.15L30.96-26.76Q30.96-25.98 30.52-25.53Q30.09-25.08 29.04-24.84L29.04-24.84L26.76-24.33Q27.18-22.98 27.18-21.54L27.18-21.54Q27.18-19.20 26.20-17.34Q25.23-15.48 23.54-14.17Q21.84-12.87 19.53-12.16Q17.22-11.46 14.58-11.46L14.58-11.46Q13.11-11.46 11.82-11.64L11.82-11.64Q10.80-11.04 10.80-10.26L10.80-10.26Q10.80-9.48 11.63-9.13Q12.45-8.79 13.80-8.65Q15.15-8.52 16.89-8.47Q18.63-8.43 20.43-8.27Q22.23-8.10 23.97-7.71Q25.71-7.32 27.06-6.45Q28.41-5.58 29.23-4.13Q30.06-2.67 30.06-0.42L30.06-0.42Q30.06 1.68 29.04 3.69Q28.02 5.70 26.04 7.26Q24.06 8.82 21.18 9.76Q18.30 10.71 14.58 10.71L14.58 10.71Q10.92 10.71 8.27 10.02Q5.61 9.33 3.85 8.21Q2.10 7.08 1.26 5.61Q0.42 4.14 0.42 2.55L0.42 2.55Q0.42 0.48 1.68-0.94Q2.94-2.37 5.13-3.18L5.13-3.18Q4.08-3.87 3.45-4.95Q2.82-6.03 2.82-7.68L2.82-7.68Q2.82-8.37 3.06-9.13Q3.30-9.90 3.81-10.62Q4.32-11.34 5.10-12Q5.88-12.66 6.96-13.17L6.96-13.17Q4.53-14.46 3.13-16.59Q1.74-18.72 1.74-21.54L1.74-21.54Q1.74-23.88 2.73-25.75Q3.72-27.63 5.44-28.93Q7.17-30.24 9.51-30.95Q11.85-31.65 14.58-31.65ZM21.48 1.14L21.48 1.14Q21.48 0.39 21.02-0.06Q20.55-0.51 19.75-0.78Q18.96-1.05 17.89-1.17Q16.83-1.29 15.60-1.35Q14.37-1.41 13.05-1.45Q11.73-1.50 10.44-1.65L10.44-1.65Q9.57-1.05 9.01-0.32Q8.46 0.42 8.46 1.35L8.46 1.35Q8.46 2.01 8.74 2.55Q9.03 3.09 9.75 3.48Q10.47 3.87 11.68 4.09Q12.90 4.32 14.76 4.32L14.76 4.32Q16.77 4.32 18.06 4.08Q19.35 3.84 20.11 3.42Q20.88 3 21.18 2.42Q21.48 1.83 21.48 1.14ZM14.58-17.19L14.58-17.19Q16.89-17.19 17.93-18.34Q18.96-19.50 18.96-21.33L18.96-21.33Q18.96-23.22 17.93-24.30Q16.89-25.38 14.58-25.38L14.58-25.38Q12.27-25.38 11.23-24.30Q10.20-23.22 10.20-21.33L10.20-21.33Q10.20-20.43 10.46-19.68Q10.71-18.93 11.25-18.38Q11.79-17.82 12.62-17.50Q13.44-17.19 14.58-17.19Z" transform="translate(-0.42, 44.91)"></path></g></g></g> <!----></g><defs v-gra="od"></defs></svg>